General
Complete name                  : Gabi.2012.KOREA.720p.HDRip.x264.AC3-JYK.mkv
Format                         : Matroska
Format version                 : Version 2
File size                      : 2.54 GiB
Duration                       : 1h 56mn
Overall bit rate               : 3 129 Kbps

Video
ID                             : 1
Format                         : AVC
Format/Info                    : Advanced Video Codec
Format profile                 : High@L4.1
Format settings, CABAC         : Yes
Format settings, ReFrames      : 4 frames
Codec ID                       : V_MPEG4/ISO/AVC
Duration                       : 1h 56mn
Bit rate                       : 2 850 Kbps
Width                          : 1 280 pixels
Height                         : 528 pixels
Display aspect ratio           : 2.40:1
Frame rate                     : 30.000 fps
Color space                    : YUV
Chroma subsampling             : 4:2:0
Bit depth                      : 8 bits
Scan type                      : Progressive
Bits/(Pixel*Frame)             : 0.141
Stream size                    : 2.28 GiB (90%)
Writing library                : x264 core 122 r2184bm 5c85e0a

Audio
ID                             : 2
Format                         : AC-3
Format/Info                    : Audio Coding 3
Mode extension                 : CM (complete main)
Codec ID                       : A_AC3
Duration                       : 1h 56mn
Bit rate mode                  : Constant
Bit rate                       : 256 Kbps
Channel(s)                     : 2 channels
Channel positions              : Front: L R
Sampling rate                  : 48.0 KHz
Bit depth                      : 16 bits
Compression mode               : Lossy
Stream size                    : 213 MiB (8%)
Screencaps 
http://www.asiatorrents.com/imgz/images/NlB2.jpg
 
http://www.koreanfilm.or.kr/jsp/films/index/filmsView.jsp?movieCd=20111774